<svg width="20" height="21" viewBox="0 0 20 21" fill="none" xmlns="http://www.w3.org/2000/svg">
<path d="M13.175 17.3167C12.9583 17.3167 12.7333 17.3083 12.4917 17.2833C12.0583 17.25 11.5667 17.1667 11.0583 17.0417L9.65833 16.7083C5.81667 15.8 4.55833 13.7667 5.45833 9.93334L6.275 6.44167C6.45833 5.65001 6.675 5.00834 6.94167 4.47501C8.375 1.51667 11.1167 1.78334 13.0667 2.24167L14.4583 2.56667C16.4083 3.02501 17.6417 3.75001 18.3333 4.85834C19.0167 5.96667 19.125 7.39167 18.6667 9.34167L17.85 12.825C17.1333 15.875 15.6417 17.3167 13.175 17.3167ZM10.9333 3.20834C9.54167 3.20834 8.65833 3.78334 8.06667 5.01667C7.85 5.46667 7.65833 6.02501 7.49167 6.72501L6.675 10.2167C5.93333 13.3667 6.79167 14.7417 9.94167 15.4917L11.3417 15.825C11.7917 15.9333 12.2167 16 12.6 16.0333C14.8667 16.2583 15.9917 15.2667 16.625 12.5417L17.4417 9.05834C17.8167 7.45001 17.7667 6.32501 17.2667 5.51667C16.7667 4.70834 15.7833 4.15834 14.1667 3.78334L12.775 3.45834C12.0833 3.29167 11.4667 3.20834 10.9333 3.20834Z" fill="#333333"/>
<path d="M6.94167 19.0417C4.8 19.0417 3.43334 17.7583 2.55834 15.05L1.49167 11.7583C0.308336 8.09166 1.36667 6.025 5.01667 4.84166L6.33334 4.41666C6.76667 4.28333 7.09167 4.19166 7.38334 4.14166C7.625 4.09166 7.85834 4.18333 8 4.375C8.14167 4.56666 8.16667 4.81666 8.06667 5.03333C7.85 5.475 7.65834 6.03333 7.5 6.73333L6.68334 10.225C5.94167 13.375 6.8 14.75 9.95 15.5L11.35 15.8333C11.8 15.9417 12.225 16.0083 12.6083 16.0417C12.875 16.0667 13.0917 16.25 13.1667 16.5083C13.2333 16.7667 13.1333 17.0333 12.9167 17.1833C12.3667 17.5583 11.675 17.875 10.8 18.1583L9.48334 18.5917C8.525 18.8917 7.69167 19.0417 6.94167 19.0417ZM6.48334 5.68333L5.40834 6.03333C2.43334 6.99166 1.725 8.39166 2.68334 11.375L3.75 14.6667C4.71667 17.6417 6.11667 18.3583 9.09167 17.4L10.4083 16.9667C10.4583 16.95 10.5 16.9333 10.55 16.9167L9.66667 16.7083C5.825 15.8 4.56667 13.7667 5.46667 9.93333L6.28334 6.44166C6.34167 6.175 6.40834 5.91666 6.48334 5.68333Z" fill="#292D32"/>
<path d="M14.575 9.25833C14.525 9.25833 14.475 9.25 14.4167 9.24166L10.375 8.21666C10.0417 8.13333 9.84168 7.79166 9.92502 7.45833C10.0084 7.125 10.35 6.925 10.6834 7.00833L14.725 8.03333C15.0584 8.11666 15.2584 8.45833 15.175 8.79166C15.1084 9.06666 14.85 9.25833 14.575 9.25833Z" fill="#292D32"/>
<path d="M12.1333 12.075C12.0833 12.075 12.0333 12.0667 11.975 12.0583L9.55001 11.4417C9.21667 11.3583 9.01667 11.0167 9.10001 10.6833C9.18334 10.35 9.52501 10.15 9.85834 10.2333L12.2833 10.85C12.6167 10.9333 12.8167 11.275 12.7333 11.6083C12.6667 11.8917 12.4167 12.075 12.1333 12.075Z" fill="#292D32"/>
</svg>
