<svg width="21" height="20" viewBox="0 0 21 20" fill="none" xmlns="http://www.w3.org/2000/svg">
<path d="M8.00001 1.04168L13 1.04168C17.525 1.04168 19.4583 2.97501 19.4583 7.50001L19.4583 12.5C19.4583 17.025 17.525 18.9583 13 18.9583L8.00001 18.9583C3.47501 18.9583 1.54168 17.025 1.54168 12.5L1.54167 7.50001C1.54167 2.97501 3.47501 1.04168 8.00001 1.04168ZM13 17.7083C16.8417 17.7083 18.2083 16.3417 18.2083 12.5L18.2083 7.50001C18.2083 3.65834 16.8417 2.29168 13 2.29168L8.00001 2.29168C4.15834 2.29168 2.79167 3.65834 2.79167 7.50001L2.79168 12.5C2.79168 16.3417 4.15834 17.7083 8.00001 17.7083L13 17.7083Z" fill="#292D32" stroke="#333333" stroke-opacity="0.9"/>
<path d="M13 1.04168C13.3417 1.04168 13.625 1.32501 13.625 1.66668L13.625 18.3333C13.625 18.675 13.3417 18.9583 13 18.9583C12.6583 18.9583 12.375 18.675 12.375 18.3333L12.375 1.66668C12.375 1.32501 12.6583 1.04168 13 1.04168Z" fill="#333333" fill-opacity="0.9" stroke="#333333" stroke-opacity="0.9"/>
</svg>
