<svg width="20" height="21" viewBox="0 0 20 21" fill="none" xmlns="http://www.w3.org/2000/svg">
<path d="M10 13.625C8.27502 13.625 6.87502 12.225 6.87502 10.5C6.87502 8.77502 8.27502 7.37501 10 7.37501C11.725 7.37501 13.125 8.77502 13.125 10.5C13.125 12.225 11.725 13.625 10 13.625ZM10 8.62501C8.96669 8.62501 8.12502 9.46668 8.12502 10.5C8.12502 11.5333 8.96669 12.375 10 12.375C11.0334 12.375 11.875 11.5333 11.875 10.5C11.875 9.46668 11.0334 8.62501 10 8.62501Z" fill="#333333"/>
<path d="M12.675 18.9917C12.5 18.9917 12.325 18.9667 12.15 18.925C11.6334 18.7833 11.2 18.4583 10.925 18L10.825 17.8333C10.3334 16.9833 9.65835 16.9833 9.16669 17.8333L9.07502 17.9917C8.80002 18.4583 8.36669 18.7917 7.85002 18.925C7.32502 19.0667 6.78335 18.9917 6.32502 18.7167L4.89169 17.8917C4.38335 17.6 4.01669 17.125 3.85835 16.55C3.70835 15.975 3.78335 15.3833 4.07502 14.875C4.31669 14.45 4.38335 14.0667 4.24169 13.825C4.10002 13.5833 3.74169 13.4417 3.25002 13.4417C2.03335 13.4417 1.04169 12.45 1.04169 11.2333V9.76668C1.04169 8.55001 2.03335 7.55835 3.25002 7.55835C3.74169 7.55835 4.10002 7.41668 4.24169 7.17502C4.38335 6.93335 4.32502 6.55002 4.07502 6.12502C3.78335 5.61668 3.70835 5.01668 3.85835 4.45001C4.00835 3.87501 4.37502 3.40002 4.89169 3.10835L6.33335 2.28335C7.27502 1.72501 8.51669 2.05001 9.08335 3.00835L9.18335 3.17501C9.67502 4.02501 10.35 4.02501 10.8417 3.17501L10.9334 3.01668C11.5 2.05001 12.7417 1.72501 13.6917 2.29168L15.125 3.11668C15.6334 3.40835 16 3.88335 16.1584 4.45835C16.3084 5.03335 16.2334 5.62502 15.9417 6.13335C15.7 6.55835 15.6334 6.94168 15.775 7.18335C15.9167 7.42502 16.275 7.56668 16.7667 7.56668C17.9834 7.56668 18.975 8.55835 18.975 9.77502V11.2417C18.975 12.4583 17.9834 13.45 16.7667 13.45C16.275 13.45 15.9167 13.5917 15.775 13.8333C15.6334 14.075 15.6917 14.4583 15.9417 14.8833C16.2334 15.3917 16.3167 15.9917 16.1584 16.5583C16.0084 17.1333 15.6417 17.6083 15.125 17.9L13.6834 18.725C13.3667 18.9 13.025 18.9917 12.675 18.9917ZM10 15.9083C10.7417 15.9083 11.4334 16.375 11.9084 17.2L12 17.3583C12.1 17.5333 12.2667 17.6583 12.4667 17.7083C12.6667 17.7583 12.8667 17.7333 13.0334 17.6333L14.475 16.8C14.6917 16.675 14.8584 16.4667 14.925 16.2167C14.9917 15.9667 14.9584 15.7083 14.8334 15.4917C14.3584 14.675 14.3 13.8333 14.6667 13.1917C15.0334 12.55 15.7917 12.1833 16.7417 12.1833C17.275 12.1833 17.7 11.7583 17.7 11.225V9.75835C17.7 9.23335 17.275 8.80001 16.7417 8.80001C15.7917 8.80001 15.0334 8.43335 14.6667 7.79168C14.3 7.15002 14.3584 6.30835 14.8334 5.49168C14.9584 5.27501 14.9917 5.01668 14.925 4.76668C14.8584 4.51668 14.7 4.31668 14.4834 4.18335L13.0417 3.35835C12.6834 3.14168 12.2084 3.26668 11.9917 3.63335L11.9 3.79168C11.425 4.61668 10.7334 5.08335 9.99169 5.08335C9.25002 5.08335 8.55835 4.61668 8.08335 3.79168L7.99169 3.62501C7.78335 3.27501 7.31669 3.15001 6.95835 3.35835L5.51669 4.19168C5.30002 4.31668 5.13335 4.52502 5.06669 4.77502C5.00002 5.02502 5.03335 5.28335 5.15835 5.50002C5.63335 6.31668 5.69169 7.15835 5.32502 7.80002C4.95835 8.44168 4.20002 8.80835 3.25002 8.80835C2.71669 8.80835 2.29169 9.23335 2.29169 9.76668V11.2333C2.29169 11.7583 2.71669 12.1917 3.25002 12.1917C4.20002 12.1917 4.95835 12.5583 5.32502 13.2C5.69169 13.8417 5.63335 14.6833 5.15835 15.5C5.03335 15.7167 5.00002 15.975 5.06669 16.225C5.13335 16.475 5.29169 16.675 5.50835 16.8083L6.95002 17.6333C7.12502 17.7417 7.33335 17.7667 7.52502 17.7167C7.72502 17.6667 7.89169 17.5333 8.00002 17.3583L8.09169 17.2C8.56669 16.3833 9.25835 15.9083 10 15.9083Z" fill="#333333"/>
</svg>
