<svg width="20" height="21" viewBox="0 0 20 21" fill="none" xmlns="http://www.w3.org/2000/svg">
<path d="M7.63301 10.1833C7.60801 10.1833 7.59134 10.1833 7.56634 10.1833C7.52468 10.175 7.46634 10.175 7.41634 10.1833C4.99967 10.1083 3.17467 8.20834 3.17467 5.86667C3.17467 3.48334 5.11634 1.54167 7.49968 1.54167C9.88301 1.54167 11.8247 3.48334 11.8247 5.86667C11.8163 8.20834 9.98301 10.1083 7.65801 10.1833C7.64967 10.1833 7.64134 10.1833 7.63301 10.1833ZM7.49968 2.79167C5.80801 2.79167 4.42467 4.17501 4.42467 5.86667C4.42467 7.53334 5.72467 8.87501 7.38301 8.93334C7.43301 8.92501 7.54134 8.92501 7.64968 8.93334C9.28301 8.85834 10.5663 7.51667 10.5747 5.86667C10.5747 4.17501 9.19134 2.79167 7.49968 2.79167Z" fill="#333333"/>
<path d="M13.783 10.2917C13.758 10.2917 13.733 10.2917 13.708 10.2833C13.3663 10.3167 13.0163 10.075 12.983 9.73334C12.9497 9.39167 13.158 9.08334 13.4997 9.04167C13.5997 9.03334 13.708 9.03334 13.7997 9.03334C15.0163 8.96667 15.9663 7.96667 15.9663 6.74167C15.9663 5.47501 14.9413 4.45001 13.6747 4.45001C13.333 4.45834 13.0497 4.17501 13.0497 3.83334C13.0497 3.49167 13.333 3.20834 13.6747 3.20834C15.6247 3.20834 17.2163 4.80001 17.2163 6.75001C17.2163 8.66667 15.7163 10.2167 13.808 10.2917C13.7997 10.2917 13.7913 10.2917 13.783 10.2917Z" fill="#333333"/>
<path d="M7.64134 19.2917C6.00801 19.2917 4.36634 18.875 3.12467 18.0417C1.96634 17.275 1.33301 16.225 1.33301 15.0833C1.33301 13.9417 1.96634 12.8833 3.12467 12.1083C5.62468 10.45 9.67468 10.45 12.158 12.1083C13.308 12.875 13.9497 13.925 13.9497 15.0667C13.9497 16.2083 13.3163 17.2667 12.158 18.0417C10.908 18.875 9.27468 19.2917 7.64134 19.2917ZM3.81634 13.1583C3.01634 13.6917 2.58301 14.375 2.58301 15.0917C2.58301 15.8 3.02467 16.4833 3.81634 17.0083C5.89134 18.4 9.39134 18.4 11.4663 17.0083C12.2663 16.475 12.6997 15.7917 12.6997 15.075C12.6997 14.3667 12.258 13.6833 11.4663 13.1583C9.39134 11.775 5.89134 11.775 3.81634 13.1583Z" fill="#333333"/>
<path d="M15.283 17.7917C14.9913 17.7917 14.733 17.5917 14.6747 17.2917C14.608 16.95 14.8247 16.625 15.158 16.55C15.683 16.4417 16.1663 16.2333 16.5413 15.9417C17.0163 15.5833 17.2747 15.1333 17.2747 14.6583C17.2747 14.1833 17.0163 13.7333 16.5497 13.3833C16.183 13.1 15.7247 12.9 15.183 12.775C14.8497 12.7 14.633 12.3667 14.708 12.025C14.783 11.6917 15.1163 11.475 15.458 11.55C16.1747 11.7083 16.7997 11.9917 17.308 12.3833C18.083 12.9667 18.5247 13.7917 18.5247 14.6583C18.5247 15.525 18.0747 16.35 17.2997 16.9417C16.783 17.3417 16.133 17.6333 15.4163 17.775C15.3663 17.7917 15.3247 17.7917 15.283 17.7917Z" fill="#333333"/>
</svg>
