<svg width="20" height="20" viewBox="0 0 20 20" fill="none" xmlns="http://www.w3.org/2000/svg">
<path d="M8.32501 18.9833C7.82501 18.9833 7.35001 18.7333 7.02501 18.2917L6.02503 16.9583C6.02503 16.9667 5.98336 16.9417 5.96669 16.9417H5.65836C2.80836 16.9417 1.04169 16.1667 1.04169 12.325V8.99167C1.04169 5.48334 3.18336 4.56667 4.98336 4.40834C5.18336 4.38334 5.41669 4.375 5.65836 4.375H10.9917C14.0084 4.375 15.6084 5.97501 15.6084 8.99167V12.325C15.6084 12.5667 15.6 12.8 15.5667 13.025C15.4167 14.8 14.5 16.9417 10.9917 16.9417H10.6584L9.62501 18.2917C9.30001 18.7333 8.82501 18.9833 8.32501 18.9833ZM5.65836 5.625C5.46669 5.625 5.28336 5.63333 5.10836 5.65C3.17502 5.81667 2.29169 6.87501 2.29169 8.99167V12.325C2.29169 15.1833 3.17503 15.6917 5.65836 15.6917H5.99169C6.36669 15.6917 6.79168 15.9 7.02501 16.2L8.02502 17.5417C8.20836 17.7917 8.44169 17.7917 8.62503 17.5417L9.62501 16.2083C9.86668 15.8833 10.25 15.6917 10.6584 15.6917H10.9917C13.1084 15.6917 14.1667 14.8 14.325 12.9C14.35 12.7 14.3584 12.5167 14.3584 12.325V8.99167C14.3584 6.66667 13.3167 5.625 10.9917 5.625H5.65836V5.625Z" fill="#333333"/>
<path d="M8.32522 11.825C7.85855 11.825 7.49188 11.45 7.49188 10.9917C7.49188 10.5333 7.86688 10.1583 8.32522 10.1583C8.78355 10.1583 9.15855 10.5333 9.15855 10.9917C9.15855 11.45 8.79188 11.825 8.32522 11.825Z" fill="#333333"/>
<path d="M10.9916 11.825C10.5249 11.825 10.1583 11.45 10.1583 10.9917C10.1583 10.5333 10.5333 10.1583 10.9916 10.1583C11.4499 10.1583 11.8249 10.5333 11.8249 10.9917C11.8249 11.45 11.4499 11.825 10.9916 11.825Z" fill="#333333"/>
<path d="M5.66652 11.825C5.19986 11.825 4.83319 11.45 4.83319 10.9917C4.83319 10.5333 5.20819 10.1583 5.66652 10.1583C6.12486 10.1583 6.49986 10.5333 6.49986 10.9917C6.49986 11.45 6.12486 11.825 5.66652 11.825Z" fill="#333333"/>
<path d="M14.9501 13.575C14.7835 13.575 14.6168 13.5083 14.5001 13.3833C14.3668 13.25 14.3085 13.0583 14.3335 12.875C14.3585 12.7 14.3668 12.5167 14.3668 12.325V8.99166C14.3668 6.66666 13.3251 5.62499 11.0001 5.62499H5.66679C5.47512 5.62499 5.29181 5.63332 5.11681 5.64999C4.93348 5.67499 4.7418 5.60831 4.60846 5.48331C4.47513 5.34998 4.40012 5.16667 4.41679 4.98333C4.56679 3.18333 5.49179 1.04166 9.00012 1.04166H14.3335C17.3501 1.04166 18.9501 2.64166 18.9501 5.65833V8.99166C18.9501 12.5 16.8085 13.4167 15.0085 13.575C14.9835 13.575 14.9668 13.575 14.9501 13.575ZM5.76681 4.37499H10.9918C14.0085 4.37499 15.6085 5.975 15.6085 8.99166V12.2167C17.0251 11.8667 17.6918 10.825 17.6918 8.99166V5.65833C17.6918 3.33333 16.6501 2.29166 14.3251 2.29166H8.99181C7.15847 2.29166 6.12514 2.95832 5.76681 4.37499Z" fill="#333333"/>
</svg>
