<svg width="20" height="21" viewBox="0 0 20 21" fill="none" xmlns="http://www.w3.org/2000/svg">
<path d="M6.66669 5.29166C6.32502 5.29166 6.04169 5.00832 6.04169 4.66666V2.16666C6.04169 1.82499 6.32502 1.54166 6.66669 1.54166C7.00835 1.54166 7.29169 1.82499 7.29169 2.16666V4.66666C7.29169 5.00832 7.00835 5.29166 6.66669 5.29166Z" fill="#333333"/>
<path d="M13.3333 5.29166C12.9916 5.29166 12.7083 5.00832 12.7083 4.66666V2.16666C12.7083 1.82499 12.9916 1.54166 13.3333 1.54166C13.675 1.54166 13.9583 1.82499 13.9583 2.16666V4.66666C13.9583 5.00832 13.675 5.29166 13.3333 5.29166Z" fill="#292D32"/>
<path d="M17.0834 8.69998H2.91669C2.57502 8.69998 2.29169 8.41665 2.29169 8.07498C2.29169 7.73331 2.57502 7.44998 2.91669 7.44998H17.0834C17.425 7.44998 17.7084 7.73331 17.7084 8.07498C17.7084 8.41665 17.425 8.69998 17.0834 8.69998Z" fill="#292D32"/>
<path d="M13.3333 19.4583H6.66667C3.625 19.4583 1.875 17.7083 1.875 14.6667V7.58332C1.875 4.54166 3.625 2.79166 6.66667 2.79166H13.3333C16.375 2.79166 18.125 4.54166 18.125 7.58332V14.6667C18.125 17.7083 16.375 19.4583 13.3333 19.4583ZM6.66667 4.04166C4.28333 4.04166 3.125 5.19999 3.125 7.58332V14.6667C3.125 17.05 4.28333 18.2083 6.66667 18.2083H13.3333C15.7167 18.2083 16.875 17.05 16.875 14.6667V7.58332C16.875 5.19999 15.7167 4.04166 13.3333 4.04166H6.66667Z" fill="#292D32"/>
<path d="M7.08333 12.5833C6.975 12.5833 6.86666 12.5583 6.76666 12.5167C6.66666 12.475 6.57501 12.4167 6.49167 12.3417C6.41667 12.2583 6.35832 12.1667 6.31666 12.0667C6.27499 11.9667 6.25 11.8583 6.25 11.75C6.25 11.5333 6.34167 11.3167 6.49167 11.1583C6.57501 11.0833 6.66666 11.025 6.76666 10.9833C6.91666 10.9167 7.08334 10.9 7.25001 10.9333C7.30001 10.9417 7.35 10.9583 7.4 10.9833C7.45 11 7.5 11.025 7.55 11.0583C7.59166 11.0917 7.63333 11.125 7.67499 11.1583C7.70833 11.2 7.74999 11.2417 7.77499 11.2833C7.80832 11.3333 7.83334 11.3833 7.85001 11.4333C7.87501 11.4833 7.89168 11.5333 7.90001 11.5833C7.90834 11.6417 7.91667 11.6917 7.91667 11.75C7.91667 11.9667 7.82499 12.1833 7.67499 12.3417C7.51666 12.4917 7.3 12.5833 7.08333 12.5833Z" fill="#292D32"/>
<path d="M10 12.5833C9.78335 12.5833 9.56669 12.4916 9.40836 12.3416C9.37503 12.3 9.3417 12.2583 9.30836 12.2167C9.27503 12.1667 9.25001 12.1167 9.23334 12.0667C9.20834 12.0167 9.19168 11.9667 9.18334 11.9167C9.17501 11.8583 9.16669 11.8083 9.16669 11.75C9.16669 11.6417 9.19168 11.5333 9.23334 11.4333C9.27501 11.3333 9.33336 11.2417 9.40836 11.1583C9.64169 10.925 10.0167 10.85 10.3167 10.9833C10.425 11.025 10.5083 11.0833 10.5917 11.1583C10.7417 11.3167 10.8334 11.5333 10.8334 11.75C10.8334 11.8083 10.825 11.8583 10.8167 11.9167C10.8084 11.9667 10.7917 12.0167 10.7667 12.0667C10.75 12.1167 10.725 12.1667 10.6917 12.2167C10.6583 12.2583 10.625 12.3 10.5917 12.3416C10.5083 12.4166 10.425 12.475 10.3167 12.5167C10.2167 12.5583 10.1084 12.5833 10 12.5833Z" fill="#292D32"/>
<path d="M7.08333 15.5C6.975 15.5 6.86666 15.475 6.76666 15.4334C6.66666 15.3917 6.57501 15.3333 6.49167 15.2583C6.41667 15.175 6.35832 15.0917 6.31666 14.9833C6.27499 14.8833 6.25 14.775 6.25 14.6667C6.25 14.45 6.34167 14.2333 6.49167 14.075C6.57501 14 6.66666 13.9417 6.76666 13.9C7.075 13.7667 7.44166 13.8417 7.67499 14.075C7.70833 14.1167 7.74999 14.1583 7.77499 14.2C7.80832 14.25 7.83334 14.3 7.85001 14.35C7.87501 14.4 7.89168 14.45 7.90001 14.5083C7.90834 14.5583 7.91667 14.6167 7.91667 14.6667C7.91667 14.8833 7.82499 15.1 7.67499 15.2583C7.51666 15.4083 7.3 15.5 7.08333 15.5Z" fill="#292D32"/>
</svg>
