<svg width="20" height="21" viewBox="0 0 20 21" fill="none" xmlns="http://www.w3.org/2000/svg">
<path d="M10 18.9C9.75002 18.9 9.50002 18.8417 9.29169 18.725C7.73335 17.875 4.99169 16.975 3.27502 16.75L3.03335 16.7167C1.94169 16.5833 1.04169 15.5583 1.04169 14.45V4.38332C1.04169 3.72499 1.30002 3.12499 1.77502 2.69165C2.25002 2.25832 2.86669 2.04999 3.51669 2.10832C5.35002 2.24999 8.11669 3.16665 9.68335 4.14999L9.88335 4.26665C9.94169 4.29999 10.0667 4.29999 10.1167 4.27499L10.25 4.19165C11.8167 3.20832 14.5834 2.27499 16.425 2.11665C16.4417 2.11665 16.5084 2.11665 16.525 2.11665C17.1334 2.05832 17.7584 2.27499 18.225 2.70832C18.7 3.14165 18.9584 3.74165 18.9584 4.39999V14.4583C18.9584 15.575 18.0584 16.5917 16.9584 16.725L16.6834 16.7583C14.9667 16.9833 12.2167 17.8917 10.6917 18.7333C10.4917 18.85 10.25 18.9 10 18.9ZM3.31669 3.34999C3.05002 3.34999 2.80835 3.44165 2.61669 3.61665C2.40835 3.80832 2.29169 4.08332 2.29169 4.38332V14.45C2.29169 14.9417 2.71669 15.4167 3.19169 15.4833L3.44169 15.5167C5.31669 15.7667 8.19169 16.7083 9.85835 17.6167C9.93335 17.65 10.0417 17.6583 10.0834 17.6417C11.75 16.7167 14.6417 15.7667 16.525 15.5167L16.8084 15.4833C17.2834 15.425 17.7084 14.9417 17.7084 14.45V4.39165C17.7084 4.08332 17.5917 3.81665 17.3834 3.61665C17.1667 3.42499 16.8917 3.33332 16.5834 3.34999C16.5667 3.34999 16.5 3.34999 16.4834 3.34999C14.8917 3.49165 12.325 4.34999 10.925 5.22499L10.7917 5.31665C10.3334 5.59999 9.68335 5.59999 9.24169 5.32499L9.04169 5.20832C7.61669 4.33332 5.05002 3.48332 3.41669 3.34999C3.38335 3.34999 3.35002 3.34999 3.31669 3.34999Z" fill="white"/>
<path d="M10 18.2C9.65833 18.2 9.375 17.9167 9.375 17.575V5.07501C9.375 4.73335 9.65833 4.45001 10 4.45001C10.3417 4.45001 10.625 4.73335 10.625 5.07501V17.575C10.625 17.925 10.3417 18.2 10 18.2Z" fill="white"/>
<path d="M6.45831 8.20001H4.58331C4.24165 8.20001 3.95831 7.91668 3.95831 7.57501C3.95831 7.23335 4.24165 6.95001 4.58331 6.95001H6.45831C6.79998 6.95001 7.08331 7.23335 7.08331 7.57501C7.08331 7.91668 6.79998 8.20001 6.45831 8.20001Z" fill="white"/>
<path d="M7.08331 10.7H4.58331C4.24165 10.7 3.95831 10.4167 3.95831 10.075C3.95831 9.73335 4.24165 9.45001 4.58331 9.45001H7.08331C7.42498 9.45001 7.70831 9.73335 7.70831 10.075C7.70831 10.4167 7.42498 10.7 7.08331 10.7Z" fill="white"/>
</svg>
